<?xml version="1.0" standalone="no"?>
<!DOCTYPE svg PUBLIC "-//W3C//DTD SVG 20010904//EN"
 "http://www.w3.org/TR/2001/REC-SVG-20010904/DTD/svg10.dtd">
<svg version="1.0" xmlns="http://www.w3.org/2000/svg"
 width="700.000000pt" height="700.000000pt" viewBox="0 0 700.000000 700.000000"
 preserveAspectRatio="xMidYMid meet">
<metadata>
Created by potrace 1.11, written by Peter Selinger 2001-2013
</metadata>
<g transform="translate(0.000000,700.000000) scale(0.100000,-0.100000)"
fill="#000000" stroke="none">
<path d="M5186 6883 c-2 -3 -2650 -11 -3694 -12 l-733 -1 2 -669 c1 -368 -1
-673 -4 -678 -4 -6 -145 -9 -326 -9 l-321 1 0 -685 0 -685 355 3 c195 2 355 2
356 0 0 -2 3 -507 5 -1123 3 -616 5 -1379 7 -1695 l2 -575 158 0 c133 0 157
-2 158 -15 0 -8 1 -156 2 -328 l2 -313 325 3 325 3 -2 325 -2 325 832 2 c458
1 1221 3 1697 5 l865 3 2 -323 c0 -178 4 -326 8 -330 4 -4 150 -7 326 -7 l319
0 0 326 0 326 148 -2 c81 -1 154 2 162 6 14 7 16 80 14 656 -3 988 -6 2707 -5
2718 1 8 118 12 358 13 196 1 358 3 360 5 6 6 3 1350 -2 1356 -3 2 -149 4
-325 3 l-320 -2 0 207 c-1 292 -7 1157 -9 1163 -1 5 -1040 8 -1045 3z m-1666
-712 c0 -2 -253 -257 -562 -568 -310 -310 -616 -618 -682 -684 -65 -65 -112
-119 -105 -120 8 0 154 0 324 0 l310 1 680 685 680 684 678 3 c596 3 677 1
678 -12 2 -56 10 -2848 9 -3325 l0 -60 -1193 -3 c-655 -2 -1567 -5 -2024 -7
l-833 -2 -1 31 c-3 117 -10 2919 -9 3333 l0 43 793 2 c1058 4 1257 4 1257 -1z
m631 -4190 c0 -80 2 -231 2 -335 2 -219 13 -194 -118 -280 -211 -140 -389
-197 -595 -191 -63 2 -128 6 -145 9 -128 27 -318 115 -437 204 l-78 57 0 337
0 337 23 3 c12 2 320 3 685 4 l662 1 1 -146z m1182 111 c125 -56 188 -155 191
-302 5 -183 -105 -314 -282 -338 -150 -21 -297 59 -360 196 -38 82 -37 196 1
273 44 87 99 140 183 174 77 31 194 30 267 -3z m-3435 6 c71 -17 122 -50 169
-107 107 -130 95 -351 -25 -465 -52 -50 -87 -67 -173 -84 -164 -32 -336 72
-385 233 -32 109 -12 216 60 307 79 102 223 149 354 116z"/>
</g>
</svg>
